<?xml version="1.0" standalone="yes"?>
<svg width="860" height="906">
<path style="fill:#f7f7f7; stroke:none;" d="M0 0L0 906L860 906L860 0L0 0z"/>
<path style="fill:#b2ccf9; stroke:none;" d="M277 187L277 188L493 188L473 187L429 187L277 187z"/>
<path style="fill:#4c8cfc; stroke:none;" d="M255 317L435 317L491 317L522 318L509 299C495.023 291.738 493 277.182 493 263L493 188L322 188C302.765 188 273.286 181.841 260.043 199.015C252.374 208.961 255 223.133 255 235L255 317z"/>
<path style="fill:#a5c4ff; stroke:none;" d="M493 188L493 260C493 273.431 492.706 287.219 504.093 296.624C513.046 304.019 525.192 302 536 302L607 302C591.957 280.645 568.487 262.487 550 244C531.83 225.83 513.993 202.788 493 188z"/>
<path style="fill:#6c9cf3; stroke:none;" d="M254 211L254 641L255 641L255 337L255 249C255 238.104 258.208 221.028 254 211z"/>
<path style="fill:#cfd5e1; stroke:none;" d="M253 212L253 548L253 628C253 635.663 250.175 650.699 258 655C257.59 648.822 254.523 643.298 254.09 637C251.84 604.332 254 570.753 254 538L254 342L254 251C254 239.842 257.308 222.266 253 212z"/>
<path style="fill:#e6e6e6; stroke:none;" d="M252 217C248.225 231.267 250.429 246.379 250.429 261C250.429 283.639 250 306.337 250 329L250 561L250 633C249.999 646.908 251.612 663.972 262.415 674.281C273.549 684.905 295.068 681 309 681C349.685 681 390.691 681.877 431.015 679.054C469.592 676.353 509.317 679 548 679C562.88 679 584.566 683.082 597.155 673.468C610.943 662.94 610.63 647.72 611.015 632C611.398 616.349 612 600.716 612 585C612 522.637 611 460.298 611 398L611 341C611 330.527 612.4 319.044 609 309L608 309L608 562L608 628C608 637.203 607.35 654.037 602.262 661.911C588.117 683.803 548.262 676 526 676L330 676C305.54 676 273.389 683.587 258.876 658.87C251.439 646.205 253 633.285 253 619L253 552L253 315L253 247C253 238.203 255.407 225.118 252 217z"/>
<path style="fill:#3f78e0; stroke:none;" d="M508 300L530.66 326.015L567.28 366.665L606 409L607 374L607 303C574.168 303 540.167 305.535 508 300z"/>
<path style="fill:#618ddf; stroke:none;" d="M516 302L516 303L607 303L579 302L516 302z"/>
<path style="fill:#adc1e6; stroke:none;" d="M607 302L607 642L608 642L608 402L608 333L607 302z"/>
<path style="fill:#4788fc; stroke:none;" d="M255 317L255 477L606 477L606 586L607 586L607 408C598.935 405.738 590.844 392.453 585.285 386.166C570.949 369.955 556.261 354.085 541.83 337.961C536.5 332.005 529.882 320.873 522.246 317.738C515.64 315.026 505.057 317 498 317L444 317L255 317z"/>
<path style="fill:#87b0f9; stroke:none;" d="M337 407L337 426L338 426L337 407z"/>
<path style="fill:#f2f2f2; stroke:none;" d="M338 407L338 426L523 426L523 407L338 407z"/>
<path style="fill:#c7d8f5; stroke:none;" d="M523 407L523 426L524 426L523 407z"/>
<path style="fill:#93b7f8; stroke:none;" d="M338 426L338 427L524 427L506 426L469 426L338 426z"/>
<path style="fill:#8eb4f8; stroke:none;" d="M338 448L338 449L524 449L506 448L469 448L338 448z"/>
<path style="fill:#86b0f9; stroke:none;" d="M337 449L337 468L338 468L337 449z"/>
<path style="fill:#f2f2f2; stroke:none;" d="M338 449L338 467L523 467L523 449L338 449z"/>
<path style="fill:#d7e1f4; stroke:none;" d="M523 449L523 467L338 467L338 468L524 468L523 449z"/>
<path style="fill:#4285fc; stroke:none;" d="M255 477L255 586L294 585L368 585L606 585L606 477L255 477z"/>
<path style="fill:#85aff9; stroke:none;" d="M337 490L337 510L338 510L337 490z"/>
<path style="fill:#bbd0f5; stroke:none;" d="M338 490L338 491L523 491L523 509L338 509L338 510L524 510L524 490L338 490z"/>
<path style="fill:#f2f2f2; stroke:none;" d="M338 491L338 509L523 509L523 491L338 491z"/>
<path style="fill:#6fa2fa; stroke:none;" d="M338 531L338 532L446 532L413 531L338 531z"/>
<path style="fill:#84aff9; stroke:none;" d="M337 532L337 551L338 551L337 532z"/>
<path style="fill:#d2e0f4; stroke:none;" d="M338 532L338 533L446 533L413 532L338 532z"/>
<path style="fill:#6b9ffb; stroke:none;" d="M446 532L446 551L447 551L446 532z"/>
<path style="fill:#f2f2f2; stroke:none;" d="M338 533L338 551L446 551L446 533L338 533z"/>
<path style="fill:#83aef9; stroke:none;" d="M338 551L338 552L446 552L413 551L338 551z"/>
<path style="fill:#4084fc; stroke:none;" d="M256.603 586.028C252.645 589.163 255 603.33 255 608C255 627.48 249.226 658.241 274 665.362C281.532 667.527 291.205 666 299 666L350 666L518 666L569 666C579.672 666 589.615 666.681 597.957 658.826C611.783 645.807 607 621.162 607 604C607 599.893 609.075 587.765 604.682 585.603C599.344 582.977 588.889 585 583 585L529 585L338 585L278 585C272.912 585 260.725 582.763 256.603 586.028z"/>
<path style="fill:#c5c5c5; stroke:none;" d="M604 649C591.912 676.482 552.117 668 528 668L333 668C308.193 668 276.179 674.956 259 653L258 653C258.358 683.54 303.58 676 323 676L538 676C555.712 676 575.172 678.562 591.982 672.047C600.155 668.879 607.1 657.644 604 649z"/>
<path style="fill:#a6b1c4; stroke:none;" d="M277 667L277 668L487 668L551 668L589 666L564 667L498 667L277 667z"/>
<path style="fill:#5990ed; stroke:none;" d="M277 666L277 667L582 667L554 666L492 666L277 666z"/>
</svg>
